<svg width="20" height="22" viewBox="0 0 20 22" fill="none" xmlns="http://www.w3.org/2000/svg">
<path fill-rule="evenodd" clip-rule="evenodd" d="M10.75 1C10.75 0.585786 10.4142 0.25 10 0.25C9.58579 0.25 9.25 0.585786 9.25 1V2.5H4.70399C4.04642 2.5 3.71764 2.5 3.41593 2.5982C3.28282 2.64152 3.15463 2.6987 3.03346 2.76879C2.75882 2.92767 2.53915 3.1723 2.09981 3.66156C1.24911 4.60893 0.82376 5.08262 0.721355 5.63619C0.676866 5.87669 0.676866 6.12331 0.721355 6.36381C0.82376 6.91738 1.24911 7.39107 2.09981 8.33844C2.53915 8.8277 2.75882 9.07233 3.03346 9.2312C3.15463 9.3013 3.28282 9.35848 3.41593 9.4018C3.71764 9.5 4.04642 9.5 4.70399 9.5H9.25V11.5H4.5C3.09554 11.5 2.39331 11.5 1.88886 11.8371C1.67048 11.983 1.48298 12.1705 1.33706 12.3889C1 12.8933 1 13.5955 1 15C1 16.4045 1 17.1067 1.33706 17.6111C1.48298 17.8295 1.67048 18.017 1.88886 18.1629C2.39331 18.5 3.09554 18.5 4.5 18.5H9.25V20.25H8C7.58579 20.25 7.25 20.5858 7.25 21C7.25 21.4142 7.58579 21.75 8 21.75H12C12.4142 21.75 12.75 21.4142 12.75 21C12.75 20.5858 12.4142 20.25 12 20.25H10.75V18.5H15.296C15.9536 18.5 16.2824 18.5 16.5841 18.4018C16.7172 18.3585 16.8454 18.3013 16.9665 18.2312C17.2412 18.0723 17.4608 17.8277 17.9002 17.3384C18.7509 16.3911 19.1762 15.9174 19.2786 15.3638C19.3231 15.1233 19.3231 14.8767 19.2786 14.6362C19.1762 14.0826 18.7509 13.6089 17.9002 12.6616C17.4608 12.1723 17.2412 11.9277 16.9665 11.7688C16.8454 11.6987 16.7172 11.6415 16.5841 11.5982C16.2824 11.5 15.9536 11.5 15.296 11.5H10.75V9.5H15.5C16.9045 9.5 17.6067 9.5 18.1111 9.16294C18.3295 9.01702 18.517 8.82952 18.6629 8.61114C19 8.10669 19 7.40446 19 6C19 4.59554 19 3.89331 18.6629 3.38886C18.517 3.17048 18.3295 2.98298 18.1111 2.83706C17.6067 2.5 16.9045 2.5 15.5 2.5H10.75V1Z" fill="#018E20"/>
</svg>
