<svg width="20" height="20" viewBox="0 0 20 20" fill="none" xmlns="http://www.w3.org/2000/svg">
<path d="M15 0C13.3431 0 12 1.34315 12 3C12 4.39788 12.9561 5.57246 14.25 5.90549L14.25 11C14.25 11.4142 14.5858 11.75 15 11.75C15.4142 11.75 15.75 11.4142 15.75 11V5.90549C17.0439 5.57245 18 4.39788 18 3C18 1.34315 16.6569 0 15 0Z" fill="#018E20"/>
<path d="M6 20H14C16.4822 20 17.8752 20 18.773 19.4061L10.2591 14.7234L2.21578 19.8034C3.08705 20 4.28293 20 6 20Z" fill="#018E20"/>
<path d="M8.75758 13.8976L0.511122 9.36207C0 10.2633 0 11.6389 0 14C0 16.6657 0 18.0752 0.735566 18.9642L8.75758 13.8976Z" fill="#018E20"/>
<path d="M20 14C20 11.1716 20 9.75736 19.1213 8.87868C18.6314 8.38879 17.9751 8.17203 17 8.07612V11C17 12.1046 16.1046 13 15 13C13.8954 13 13 12.1046 13 11V8H6C3.95512 8 2.64944 8 1.75091 8.33205L19.6868 18.1968C20 17.3 20 16.0055 20 14Z" fill="#018E20"/>
</svg>
