<svg width="14" height="12" viewBox="0 0 14 12" fill="none" xmlns="http://www.w3.org/2000/svg">
<path d="M5.50004 6.00008C5.50004 5.17165 6.17161 4.50008 7.00004 4.50008C7.82847 4.50008 8.50004 5.17165 8.50004 6.00008C8.50004 6.82851 7.82847 7.50008 7.00004 7.50008C6.17161 7.50008 5.50004 6.82851 5.50004 6.00008Z" fill="#8FABCF"/>
<path fill-rule="evenodd" clip-rule="evenodd" d="M0.333374 6.00008C0.333374 7.093 0.616684 7.46106 1.1833 8.1972C2.31468 9.66704 4.21212 11.3334 7.00004 11.3334C9.78796 11.3334 11.6854 9.66704 12.8168 8.1972C13.3834 7.46106 13.6667 7.093 13.6667 6.00008C13.6667 4.90716 13.3834 4.5391 12.8168 3.80297C11.6854 2.33312 9.78796 0.666748 7.00004 0.666748C4.21212 0.666748 2.31468 2.33312 1.1833 3.80297C0.616684 4.5391 0.333374 4.90716 0.333374 6.00008ZM7.00004 3.50008C5.61933 3.50008 4.50004 4.61937 4.50004 6.00008C4.50004 7.38079 5.61933 8.50008 7.00004 8.50008C8.38075 8.50008 9.50004 7.38079 9.50004 6.00008C9.50004 4.61937 8.38075 3.50008 7.00004 3.50008Z" fill="#8FABCF"/>
</svg>
