<svg width="20" height="20" viewBox="0 0 20 20" fill="none" xmlns="http://www.w3.org/2000/svg">
<path d="M1.46447 1.46447C0 2.92893 0 5.28596 0 10C0 14.134 0 16.4553 0.987665 17.9517L17.9517 0.987665C16.4553 0 14.134 0 10 0C5.28595 0 2.92893 0 1.46447 1.46447Z" fill="#018E20"/>
<path d="M19.0123 2.04833L11.0607 10L19.0123 17.9517C20 16.4553 20 14.134 20 10C20 5.866 20 3.54466 19.0123 2.04833Z" fill="#018E20"/>
<path d="M10 11.0607L2.04833 19.0123C3.54466 20 5.866 20 10 20C14.134 20 16.4553 20 17.9517 19.0123L10 11.0607Z" fill="#018E20"/>
</svg>
