<svg width="177" height="114" viewBox="0 0 177 114" fill="none" xmlns="http://www.w3.org/2000/svg">
<g clip-path="url(#clip0_901_272)">
<g clip-path="url(#clip1_901_272)">
<path d="M13.9718 75.6056C13.4732 75.0308 12.843 74.582 12.1335 74.2961C11.4241 74.0101 10.6558 73.8955 9.89251 73.9618H4.37784V78.1729H0.569336V63.2603H13.9921C16.5519 63.2603 18.1545 63.7535 19.2157 64.7188C20.1305 65.8106 20.6311 67.1835 20.6311 68.6009C20.6311 70.0182 20.1305 71.3912 19.2157 72.483C18.3449 73.2279 17.2616 73.6873 16.1151 73.7977C17.0705 74.1884 17.9346 74.7686 18.6542 75.5022L21.6091 78.173H16.8433L13.9718 75.6056ZM13.6175 71.0044C15.0118 71.0044 15.7614 70.8403 16.2192 70.3672C16.6248 69.8701 16.8188 69.2367 16.76 68.6009C16.8192 67.9712 16.6248 67.3439 16.2192 66.8547C15.7614 66.383 15.0118 66.2176 13.6175 66.2176H4.37784V71.0041L13.6175 71.0044Z" fill="white"/>
<path d="M42.427 78.173H24.6548V63.2603H42.3644V66.2173H28.4633V69.1143H37.828V71.9491H28.4633V75.2156H42.427V78.173Z" fill="white"/>
<path d="M61.4138 75.4618H49.9268L48.116 78.173H43.8911L54.151 63.2603H57.252L67.5738 78.173H63.266L61.4138 75.4618ZM51.9245 72.483H59.3954L55.6284 66.957L51.9245 72.483Z" fill="white"/>
<path d="M86.8514 78.173H69.7036V63.2603H73.5121V75.2157H86.8514V78.173Z" fill="white"/>
<path d="M107.105 66.1555H94.4117C93.6456 66.0531 92.8671 66.2129 92.2057 66.6083C92.0977 66.7155 92.014 66.8442 91.9601 66.9858C91.9063 67.1274 91.8836 67.2787 91.8934 67.4297C91.8934 68.2926 92.601 68.6005 93.9118 68.7028L102.216 69.3399C104.88 69.5455 106.42 69.895 107.418 70.8804C107.782 71.2564 108.063 71.7019 108.246 72.1895C108.428 72.677 108.508 73.1963 108.48 73.7153C108.508 74.2614 108.423 74.8074 108.23 75.3197C108.037 75.8321 107.739 76.2999 107.356 76.6942C106.295 77.7411 104.65 78.1727 101.883 78.1727H89.1674V75.276H102.403C104.088 75.276 104.796 74.8244 104.796 73.8794C104.796 73.0377 104.297 72.7085 102.778 72.5861L95.0779 72.0108C92.872 71.8456 90.8743 71.5579 89.5837 70.4489C89.1617 70.0791 88.8259 69.6232 88.5996 69.1126C88.3733 68.6021 88.2618 68.0491 88.2731 67.4918C88.2575 66.9554 88.3571 66.4218 88.565 65.9261C88.7731 65.4304 89.0847 64.9837 89.4798 64.6153C90.5409 63.6502 92.3099 63.2603 94.6822 63.2603H107.105V66.1555Z" fill="white"/>
<path d="M124.199 63.0122C128.382 63.0122 131.149 63.6292 132.794 65.2933C133.969 66.8628 134.604 68.7636 134.604 70.7159C134.604 72.6682 133.969 74.569 132.794 76.1385C131.149 77.8026 128.382 78.4184 124.157 78.4184H121.181C116.998 78.4184 114.231 77.8026 112.586 76.1385C111.41 74.5693 110.775 72.6684 110.775 70.7159C110.775 68.7634 111.41 66.8625 112.586 65.2933C114.231 63.6292 116.998 63.0122 121.181 63.0122H124.199ZM123.845 75.1531C126.675 75.1531 128.298 74.9678 129.318 74.1867C130.151 73.217 130.608 71.9867 130.608 70.7151C130.608 69.4436 130.151 68.2133 129.318 67.2437C128.298 66.4638 126.674 66.2784 123.824 66.2784H121.555C118.705 66.2784 117.081 66.4638 116.061 67.2437C115.229 68.213 114.771 69.4434 114.771 70.7151C114.771 71.9869 115.229 73.2173 116.061 74.1867C117.081 74.9675 118.705 75.1531 121.534 75.1531H123.845Z" fill="white"/>
<path d="M141.545 78.173H137.737V63.2603H155.238V66.2173H141.545V69.1143H150.702V71.9491H141.545V78.173Z" fill="white"/>
<path d="M156.201 63.2603H176.159V66.2173H168.085V78.1727H164.276V66.2176H156.201V63.2603Z" fill="white"/>
</g>
<path d="M61.8161 18.2844L32.0967 54.7354H38.0077L61.8161 24.8522L85.6245 54.7354H91.5356L61.8161 18.2844Z" fill="white"/>
<path d="M81.1901 8.43213L118.791 54.7348H112.88L81.1901 14.9999L72.5396 25.4455L69.811 22.3886L81.1901 8.43213Z" fill="white"/>
<path d="M99.632 -0.105957L144.129 54.7348H138.218L99.632 6.46179L91.6382 15.9222L88.9097 12.8653L99.632 -0.105957Z" fill="white"/>
</g>
<path opacity="0.65" d="M45.7358 94.8H47.2238V106H45.7358V94.8ZM56.6945 94.8V96.208H53.3825V106H51.9105V96.208H48.6145V94.8H56.6945ZM67.2311 106.208C65.5351 106.208 64.1324 105.648 63.0231 104.528C61.9244 103.408 61.3751 102.032 61.3751 100.4C61.3751 98.768 61.9244 97.392 63.0231 96.272C64.1324 95.152 65.5351 94.592 67.2311 94.592C68.2551 94.592 69.1937 94.8373 70.0471 95.328C70.9111 95.8187 71.5831 96.48 72.0631 97.312L70.7671 98.064C70.4471 97.4453 69.9671 96.9547 69.3271 96.592C68.6977 96.2187 67.9991 96.032 67.2311 96.032C65.9404 96.032 64.8844 96.448 64.0631 97.28C63.2524 98.112 62.8471 99.152 62.8471 100.4C62.8471 101.637 63.2524 102.672 64.0631 103.504C64.8844 104.336 65.9404 104.752 67.2311 104.752C67.9991 104.752 68.6977 104.571 69.3271 104.208C69.9671 103.835 70.4471 103.344 70.7671 102.736L72.0631 103.472C71.5937 104.304 70.9271 104.971 70.0631 105.472C69.1991 105.963 68.2551 106.208 67.2311 106.208ZM80.2251 104.992C79.4037 105.803 78.4064 106.208 77.2331 106.208C76.0597 106.208 75.0624 105.803 74.2411 104.992C73.4304 104.181 73.0251 103.184 73.0251 102C73.0251 100.816 73.4304 99.8187 74.2411 99.008C75.0624 98.1973 76.0597 97.792 77.2331 97.792C78.4064 97.792 79.4037 98.1973 80.2251 99.008C81.0464 99.8187 81.4571 100.816 81.4571 102C81.4571 103.184 81.0464 104.181 80.2251 104.992ZM77.2331 104.848C78.0331 104.848 78.7051 104.576 79.2491 104.032C79.7931 103.488 80.0651 102.811 80.0651 102C80.0651 101.189 79.7931 100.512 79.2491 99.968C78.7051 99.424 78.0331 99.152 77.2331 99.152C76.4437 99.152 75.7771 99.424 75.2331 99.968C74.6891 100.512 74.4171 101.189 74.4171 102C74.4171 102.811 74.6891 103.488 75.2331 104.032C75.7771 104.576 76.4437 104.848 77.2331 104.848ZM91.6381 97.792C92.5341 97.792 93.2594 98.0853 93.8141 98.672C94.3687 99.248 94.6461 100.032 94.6461 101.024V106H93.2541V101.072C93.2541 100.453 93.0941 99.9733 92.7741 99.632C92.4541 99.2907 92.0274 99.12 91.4941 99.12C90.8967 99.12 90.4167 99.3227 90.0541 99.728C89.7021 100.123 89.5261 100.731 89.5261 101.552V106H88.1341V101.072C88.1341 100.453 87.9794 99.9733 87.6701 99.632C87.3714 99.2907 86.9607 99.12 86.4381 99.12C85.8514 99.12 85.3607 99.3227 84.9661 99.728C84.5821 100.133 84.3901 100.741 84.3901 101.552V106H82.9981V98H84.3901V99.072C84.9341 98.2187 85.7287 97.792 86.7741 97.792C87.8514 97.792 88.6354 98.2453 89.1261 99.152C89.6807 98.2453 90.5181 97.792 91.6381 97.792ZM100.892 97.792C102.012 97.792 102.967 98.2027 103.756 99.024C104.546 99.8347 104.94 100.827 104.94 102C104.94 103.173 104.546 104.171 103.756 104.992C102.967 105.803 102.012 106.208 100.892 106.208C99.5695 106.208 98.5615 105.68 97.8682 104.624V109.2H96.4762V98H97.8682V99.376C98.5615 98.32 99.5695 97.792 100.892 97.792ZM100.716 104.864C101.516 104.864 102.188 104.592 102.732 104.048C103.276 103.493 103.548 102.811 103.548 102C103.548 101.189 103.276 100.512 102.732 99.968C102.188 99.4133 101.516 99.136 100.716 99.136C99.9055 99.136 99.2282 99.4133 98.6842 99.968C98.1402 100.512 97.8682 101.189 97.8682 102C97.8682 102.811 98.1402 103.493 98.6842 104.048C99.2282 104.592 99.9055 104.864 100.716 104.864ZM113.125 98H114.517V106H113.125V104.624C112.432 105.68 111.424 106.208 110.101 106.208C108.981 106.208 108.027 105.803 107.237 104.992C106.448 104.171 106.053 103.173 106.053 102C106.053 100.827 106.448 99.8347 107.237 99.024C108.027 98.2027 108.981 97.792 110.101 97.792C111.424 97.792 112.432 98.32 113.125 99.376V98ZM110.277 104.864C111.088 104.864 111.765 104.592 112.309 104.048C112.853 103.493 113.125 102.811 113.125 102C113.125 101.189 112.853 100.512 112.309 99.968C111.765 99.4133 111.088 99.136 110.277 99.136C109.477 99.136 108.805 99.4133 108.261 99.968C107.717 100.512 107.445 101.189 107.445 102C107.445 102.811 107.717 103.493 108.261 104.048C108.805 104.592 109.477 104.864 110.277 104.864ZM120.51 97.792C121.449 97.792 122.201 98.0907 122.766 98.688C123.332 99.2747 123.614 100.075 123.614 101.088V106H122.222V101.168C122.222 100.517 122.046 100.016 121.694 99.664C121.342 99.3013 120.857 99.12 120.238 99.12C119.545 99.12 118.985 99.3387 118.558 99.776C118.132 100.203 117.918 100.864 117.918 101.76V106H116.526V98H117.918V99.152C118.484 98.2453 119.348 97.792 120.51 97.792ZM130.87 98H132.358L129.094 106.496C128.752 107.403 128.272 108.091 127.654 108.56C127.046 109.04 126.342 109.253 125.542 109.2V107.904C126.523 107.979 127.243 107.435 127.702 106.272L127.846 105.968L124.358 98H125.846L128.566 104.272L130.87 98Z" fill="white"/>
<defs>
<clipPath id="clip0_901_272">
<rect width="175.862" height="80" fill="white" transform="translate(0.568848)"/>
</clipPath>
<clipPath id="clip1_901_272">
<rect width="176.018" height="18.8192" fill="white" transform="translate(0.569336 61.3027)"/>
</clipPath>
</defs>
</svg>
